<?xml version="1.0"?>


<svg viewBox="0 0 210 297" version="1.1" id="svg5" xmlns:inkscape="http://www.inkscape.org/namespaces/inkscape" xmlns:sodipodi="http://sodipodi.sourceforge.net/DTD/sodipodi-0.dtd" xmlns="http://www.w3.org/2000/svg" xmlns:svg="http://www.w3.org/2000/svg">
  <namedview id="namedview7" pagecolor="#ffffff" bordercolor="#666666" borderopacity="1.0" showgrid="false"></namedview>
  <defs id="defs2"></defs>
  <g id="layer1">
    <g transform="matrix(0.02128947,0,0,-0.02128947,-2.9157375,252.43675)" fill="#000000" stroke="none" id="g13">
      <path d="m 4840,9985 c -85,-19 -183,-51 -245,-83 -55,-27 -201,-120 -225,-143 -8,-8 -46,-41 -83,-73 -98,-85 -250,-265 -347,-411 -199,-301 -403,-742 -526,-1140 -16,-49 -31,-93 -34,-97 -3,-4 -43,2 -90,12 -708,158 -1390,165 -1815,19 l -60,-21 -65,35 c -187,102 -402,108 -584,16 -85,-43 -160,-103 -217,-173 -241,-298 -168,-737 157,-944 50,-32 51,-33 64,-105 48,-275 223,-658 448,-982 65,-95 185,-257 221,-301 14,-17 42,-50 62,-75 21,-24 86,-100 147,-169 l 109,-125 -31,-36 c -17,-20 -88,-102 -158,-183 -441,-510 -722,-1020 -802,-1451 -82,-443 56,-801 394,-1024 411,-270 1095,-328 1960,-166 102,19 201,39 220,45 19,5 36,10 37,10 1,0 15,-42 32,-92 213,-663 488,-1171 813,-1501 l 106,-108 1,-87 c 1,-159 58,-303 166,-420 122,-131 262,-199 436,-209 251,-16 492,127 602,357 49,103 67,171 67,254 v 53 l 78,65 c 350,293 679,868 913,1596 17,50 31,92 32,92 1,0 18,-5 37,-10 19,-6 118,-26 220,-45 611,-115 1137,-120 1538,-15 320,84 570,248 702,462 70,115 106,213 126,349 72,492 -222,1159 -814,1845 -70,81 -141,163 -158,183 l -31,36 109,125 c 61,69 126,145 147,169 20,25 48,58 62,75 82,99 267,362 341,486 169,282 297,595 330,805 10,67 13,71 55,98 320,208 393,640 158,939 -119,152 -305,241 -500,241 -110,-1 -195,-22 -296,-74 -73,-38 -77,-39 -110,-25 -53,22 -222,63 -335,80 -394,62 -954,26 -1494,-94 -47,-10 -87,-16 -90,-12 -3,4 -18,48 -34,97 -131,423 -333,853 -554,1181 -82,120 -231,294 -317,369 -39,33 -77,66 -85,74 -24,23 -170,116 -225,143 -173,86 -396,119 -565,83 z m 279,-340 c 328,-69 695,-500 963,-1130 91,-215 217,-561 206,-570 -2,-1 -37,-12 -78,-24 -339,-99 -766,-255 -1072,-391 l -138,-61 -127,57 c -311,138 -803,317 -1098,400 -33,9 -61,18 -63,19 -5,4 78,254 120,360 230,586 486,989 760,1196 186,139 344,183 527,144 z M 985,8053 c -40,-106 -46,-270 -14,-426 l 20,-101 -34,-34 c -19,-19 -39,-32 -45,-28 -33,20 -78,248 -69,349 10,118 80,257 129,257 15,0 18,-4 13,-17 z m 195,1 c 88,-20 183,-76 253,-147 32,-32 56,-61 54,-63 -2,-3 -38,13 -78,35 -82,44 -190,76 -291,86 l -66,7 14,40 c 24,68 17,65 114,42 z m 7707,3 c -2,-7 -13,-48 -22,-91 -21,-94 -17,-237 11,-359 l 17,-78 -33,-34 c -19,-19 -37,-35 -42,-35 -13,0 -38,69 -55,150 -22,106 -14,277 16,344 30,69 68,116 93,116 12,0 18,-5 15,-13 z m 197,-3 c 89,-23 171,-70 245,-141 65,-62 78,-93 24,-56 -73,50 -213,95 -335,108 -32,4 -58,11 -58,16 0,24 34,89 47,89 8,0 43,-7 77,-16 z M 800,8007 c 0,-2 -10,-30 -22,-63 -42,-114 -22,-378 37,-497 8,-16 15,-36 15,-43 0,-11 -67,-54 -84,-54 -12,0 -56,102 -76,171 -26,97 -26,211 0,308 27,96 54,147 88,165 26,15 42,19 42,13 z m 7894,-19 c -26,-81 -34,-135 -34,-228 0,-117 17,-209 53,-300 l 25,-61 -39,-26 c -21,-14 -45,-23 -53,-20 -18,7 -70,143 -86,225 -17,85 -8,191 25,289 28,84 44,111 80,131 30,17 37,14 29,-10 z M 1230,7854 c 94,-24 175,-68 243,-133 85,-80 117,-130 117,-181 v -42 l -60,60 c -68,67 -145,117 -245,157 -67,26 -180,54 -222,55 -21,0 -23,5 -23,56 v 57 l 62,-7 c 34,-3 92,-13 128,-22 z m 7920,-5 c 119,-32 192,-81 287,-193 48,-55 53,-66 53,-110 v -49 l -40,46 c -49,56 -152,125 -239,162 -74,31 -201,65 -243,65 -27,0 -28,1 -28,56 v 56 l 68,-6 c 37,-4 101,-16 142,-27 z m -1200,-24 c 173,-7 400,-44 400,-65 0,-4 -7,-27 -16,-51 -25,-68 -30,-249 -10,-329 36,-142 120,-273 226,-355 76,-59 183,-109 265,-126 76,-15 76,-14 40,-124 -110,-336 -321,-685 -656,-1086 -145,-173 -190,-220 -204,-211 -7,4 -66,57 -131,118 -222,209 -519,456 -779,648 -66,49 -125,95 -131,103 -6,7 -14,48 -18,91 -26,287 -110,784 -190,1125 -14,60 -26,117 -26,126 0,13 14,20 58,29 258,50 338,63 487,82 156,20 459,39 530,33 17,-1 86,-5 155,-8 z m -5342,-10 c 193,-21 312,-39 510,-77 138,-27 162,-35 162,-50 0,-10 -11,-67 -25,-126 -81,-339 -165,-836 -191,-1124 -4,-43 -12,-84 -18,-92 -6,-7 -65,-53 -131,-102 -245,-180 -555,-437 -779,-648 -65,-61 -124,-114 -131,-118 -26,-16 -342,363 -502,602 -180,269 -285,472 -358,695 -36,110 -36,108 44,128 232,55 407,227 472,464 18,66 21,95 16,188 -3,62 -12,129 -21,154 -9,24 -16,47 -16,50 0,14 148,42 335,64 90,11 500,5 633,-8 z M 593,7465 c 13,-39 34,-89 46,-112 l 21,-43 -24,-6 c -14,-3 -40,-7 -58,-7 -31,-2 -34,1 -52,53 -37,110 -32,278 12,385 l 17,40 6,-120 c 5,-90 13,-138 32,-190 z m 7897,20 c 12,-38 32,-93 45,-121 l 23,-53 -49,-10 c -28,-6 -52,-11 -53,-11 -10,0 -35,83 -46,149 -15,88 -7,172 23,261 l 22,65 6,-105 c 4,-66 15,-131 29,-175 z m -7300,168 c 75,-21 200,-87 254,-134 75,-66 128,-165 107,-199 -8,-11 -19,-5 -60,35 -89,88 -221,160 -362,200 -54,15 -57,18 -63,53 -4,20 -10,45 -13,56 -4,16 -1,17 38,11 24,-4 69,-14 99,-22 z m 7873,7 c 162,-41 306,-136 368,-244 51,-89 34,-131 -28,-68 -83,85 -196,150 -333,193 -41,12 -80,28 -87,33 -6,6 -15,32 -18,59 -9,55 -12,55 98,27 z m -5287,-89 c 197,-60 391,-126 586,-201 263,-102 256,-80 55,-184 -227,-118 -524,-289 -777,-447 -113,-70 -206,-124 -208,-119 -4,10 21,187 44,320 8,47 19,108 24,135 17,98 51,262 82,398 25,106 36,137 48,137 9,0 75,-18 146,-39 z m 2642,-98 c 31,-136 65,-300 82,-398 5,-27 16,-88 24,-135 23,-134 48,-310 44,-320 -2,-5 -84,42 -183,104 -258,162 -508,307 -758,439 l -218,115 76,31 c 253,106 819,298 880,300 18,1 24,-15 53,-136 z m -5300,-8 c 29,-9 52,-20 52,-26 0,-20 -125,-141 -192,-185 -83,-55 -162,-84 -254,-91 -115,-9 -161,34 -61,57 113,27 254,111 352,209 28,28 50,51 51,51 0,0 24,-7 52,-15 z m 7921,-6 c 17,-6 31,-16 31,-23 0,-20 -112,-130 -179,-175 -88,-60 -171,-92 -258,-98 -57,-5 -77,-2 -98,11 -14,9 -25,20 -25,24 0,4 31,15 68,25 90,23 210,92 308,177 82,71 99,78 153,59 z m 184,-81 c 15,-11 27,-23 27,-27 0,-18 -64,-102 -122,-160 -72,-72 -148,-114 -256,-142 -93,-24 -157,-24 -201,0 l -34,18 72,16 c 86,20 136,41 213,91 70,44 175,141 212,195 30,43 38,43 89,9 z m -7905,2 c 17,-11 32,-23 32,-28 0,-40 -173,-218 -249,-257 -65,-32 -189,-65 -248,-65 -47,0 -107,25 -98,40 4,6 18,10 33,10 110,1 350,154 437,279 31,46 46,49 93,21 z m 147,-125 c 34,-44 29,-60 -43,-127 -68,-63 -154,-110 -238,-132 -105,-27 -117,-20 -42,22 89,49 164,116 229,202 28,38 55,70 60,70 4,0 20,-16 34,-35 z m 7899,4 c 14,-17 26,-37 26,-45 0,-23 -80,-104 -144,-145 -72,-47 -147,-76 -218,-84 l -53,-6 67,36 c 78,41 176,129 238,214 25,34 48,61 51,61 4,0 19,-14 33,-31 z M 5193,7004 c 466,-233 822,-437 1229,-706 195,-130 196,-130 202,-172 42,-304 42,-1528 0,-1807 -5,-35 -15,-43 -217,-176 -316,-208 -493,-315 -782,-474 -257,-140 -597,-309 -624,-309 -27,0 -372,170 -626,309 -289,159 -467,266 -782,474 -202,133 -212,141 -217,176 -42,279 -42,1504 0,1808 6,41 6,41 203,171 236,156 354,229 611,377 312,179 768,413 808,414 12,1 100,-38 195,-85 z M 3015,5858 c -11,-58 -17,-958 -7,-1128 5,-91 8,-167 6,-169 -15,-18 -774,631 -774,662 0,11 276,267 425,394 108,91 339,273 348,273 4,0 5,-15 2,-32 z m 4121,-79 c 179,-144 228,-186 404,-345 152,-138 220,-203 220,-211 0,-31 -759,-680 -774,-662 -2,2 1,78 6,169 10,170 4,1070 -7,1128 -3,17 -2,32 3,32 5,0 71,-50 148,-111 z M 2109,4878 c 225,-216 714,-620 900,-743 44,-30 45,-32 61,-180 35,-326 111,-766 185,-1072 14,-57 25,-111 25,-121 0,-15 -23,-23 -157,-50 -340,-67 -589,-95 -873,-95 -236,0 -356,11 -530,50 -343,75 -544,228 -616,468 -29,94 -24,278 10,425 88,373 356,825 767,1294 128,146 104,143 228,24 z m 6029,-45 c 387,-442 665,-913 746,-1268 100,-438 -32,-701 -426,-849 -178,-66 -411,-99 -708,-99 -285,1 -534,28 -872,95 -135,27 -158,35 -158,50 0,10 11,64 25,121 74,306 150,746 185,1072 16,148 17,150 61,180 151,99 704,550 829,675 3,3 45,43 94,89 l 88,83 23,-23 c 13,-13 63,-70 113,-126 z M 3680,3685 c 235,-147 490,-293 725,-416 96,-50 175,-94 175,-98 0,-8 0,-8 -285,-115 -121,-46 -299,-109 -395,-139 -263,-84 -280,-88 -285,-74 -40,115 -185,885 -185,981 0,18 1,18 27,0 16,-10 116,-72 223,-139 z m 2860,-71 c -40,-260 -126,-686 -155,-771 -5,-14 -22,-10 -300,79 -161,51 -279,94 -622,226 -24,9 -43,19 -43,23 0,4 75,46 168,94 283,148 600,333 897,523 54,34 81,47 83,38 2,-7 -11,-103 -28,-212 z M 5145,2915 c 321,-140 739,-293 1025,-375 63,-18 116,-34 118,-36 12,-9 -145,-435 -233,-634 -104,-237 -283,-539 -406,-685 -46,-54 -152,-165 -158,-165 -4,0 -40,33 -81,73 -56,55 -97,84 -160,115 -122,60 -193,76 -315,69 -166,-8 -301,-67 -409,-175 l -53,-53 -49,54 c -172,188 -351,476 -483,776 -93,212 -241,616 -229,625 2,2 55,18 118,36 289,83 752,253 1055,389 50,22 100,40 112,40 12,1 79,-24 148,-54 z M 4893,1130 c -27,-77 -29,-257 -4,-377 12,-56 18,-107 15,-115 -3,-7 -21,-26 -40,-42 l -34,-28 -15,36 c -42,100 -63,274 -45,370 15,81 67,186 100,203 35,17 42,4 23,-47 z m 196,44 c 96,-24 191,-77 260,-146 61,-61 81,-94 39,-65 -88,61 -215,105 -331,114 -78,6 -79,6 -74,32 8,39 26,81 34,81 4,0 36,-7 72,-16 z m -391,-114 c -39,-121 -26,-334 28,-474 13,-33 24,-65 24,-70 0,-10 -80,-60 -85,-54 -16,18 -59,122 -75,179 -47,171 1,413 92,469 18,11 33,18 35,17 1,-2 -7,-32 -19,-67 z m 448,-90 c 105,-27 167,-58 236,-120 85,-76 128,-139 128,-189 0,-22 -1,-41 -3,-41 -1,0 -34,30 -73,68 -103,99 -260,170 -436,197 l -38,6 v 49 50 h 53 c 30,0 89,-9 133,-20 z M 4513,585 c 13,-38 33,-89 42,-113 10,-23 16,-45 13,-47 -3,-3 -28,-8 -55,-12 l -50,-5 -18,63 c -35,125 -30,268 13,374 l 17,40 7,-115 c 4,-84 13,-134 31,-185 z m 572,189 c 159,-38 323,-151 373,-257 43,-91 20,-109 -51,-40 -84,80 -180,134 -324,183 l -88,29 -11,50 c -7,28 -10,52 -7,54 5,5 8,5 108,-19 z m -43,-194 c 21,-6 40,-15 43,-21 19,-30 -152,-180 -271,-236 -65,-31 -88,-37 -167,-41 -83,-4 -94,-2 -110,16 -19,20 -18,21 25,32 75,19 131,42 193,78 66,39 167,116 204,156 28,29 31,30 83,16 z m 189,-82 c 22,-12 39,-26 39,-32 0,-22 -104,-148 -158,-192 -86,-70 -161,-102 -295,-125 -60,-10 -73,-9 -108,6 -21,10 -39,21 -39,25 0,4 28,13 62,20 118,23 258,109 371,229 37,39 67,76 67,81 0,16 19,12 61,-12 z m 179,-167 c 0,-25 -130,-144 -195,-178 -55,-28 -203,-68 -214,-58 -5,6 -10,3 64,40 70,35 200,154 246,226 l 32,50 33,-32 c 19,-18 34,-40 34,-48 z" id="path9" style="fill:#cf181a;fill-opacity:1"></path>
      <path d="m 4792,6435 c -154,-27 -318,-93 -452,-180 -98,-64 -265,-231 -325,-323 -201,-313 -253,-681 -143,-1022 31,-97 110,-250 171,-332 110,-147 249,-265 410,-349 201,-104 346,-135 585,-127 254,9 461,85 669,244 374,287 538,792 407,1252 -118,414 -465,737 -889,828 -101,22 -331,27 -433,9 z m 104,-151 c -21,-54 -57,-201 -67,-273 -23,-165 -2,-419 53,-643 l 22,-91 -78,-74 c -44,-40 -82,-73 -86,-73 -9,0 -54,108 -78,190 -55,182 -73,472 -38,615 25,107 62,196 113,271 25,38 47,71 49,73 4,5 70,18 98,20 13,1 16,-4 12,-15 z m 276,2 c 210,-40 424,-157 566,-310 49,-52 144,-187 137,-194 -2,-2 -29,17 -59,42 -167,143 -434,239 -728,262 -103,8 -101,5 -62,116 40,110 32,106 146,84 z m -647,-175 c -20,-50 -42,-125 -50,-167 -22,-112 -19,-346 4,-486 21,-117 74,-295 110,-366 12,-23 21,-46 21,-51 0,-16 -156,-111 -180,-111 -15,0 -91,163 -128,275 -84,251 -82,477 8,725 54,150 75,179 164,232 44,27 81,46 84,44 2,-2 -13,-45 -33,-95 z m 770,-206 c 261,-60 431,-163 603,-366 107,-125 113,-141 110,-255 l -3,-99 -33,45 c -127,174 -346,322 -609,414 -109,37 -288,76 -354,76 h -39 v 112 111 l 108,-6 c 59,-4 156,-18 217,-32 z M 4104,5730 c -42,-234 10,-512 146,-782 l 39,-77 -32,-10 c -34,-11 -150,-31 -179,-31 -32,0 -80,143 -104,304 -25,171 -6,341 57,511 21,58 79,169 84,163 1,-2 -3,-37 -11,-78 z m 1021,-175 c 172,-33 385,-120 527,-216 120,-82 231,-214 285,-339 l 25,-57 -21,-48 -21,-48 -88,89 c -96,97 -190,166 -322,237 -103,56 -289,129 -385,153 -38,9 -75,23 -82,31 -10,14 -24,64 -48,181 -6,30 -5,32 22,32 15,0 64,-7 108,-15 z m 45,-397 c 36,-11 68,-23 72,-27 12,-11 -113,-160 -194,-232 -150,-135 -327,-239 -475,-281 -63,-18 -104,-22 -217,-23 h -138 l -34,39 c -19,22 -34,42 -34,46 0,4 36,14 81,24 217,47 421,157 645,350 60,51 119,105 132,119 26,28 28,28 162,-15 z m 307,-134 c 46,-25 87,-52 90,-60 7,-19 -86,-159 -162,-244 -86,-96 -190,-186 -274,-235 -125,-74 -387,-145 -537,-145 -40,0 -62,7 -110,36 -92,55 -96,61 -38,68 214,27 406,112 607,269 124,98 274,256 316,335 6,12 14,22 18,22 3,0 44,-21 90,-46 z m 292,-236 c 34,-40 61,-78 61,-86 0,-42 -164,-213 -275,-286 -81,-54 -212,-114 -301,-136 -81,-21 -271,-43 -287,-33 -5,3 21,16 57,29 150,52 269,128 400,254 77,74 195,217 249,303 10,15 21,27 26,27 5,0 36,-32 70,-72 z" id="path11" style="fill:#cf181a;fill-opacity:1"></path>
    </g>
  </g>
</svg>